<svg fill="#fff" xmlns="http://www.w3.org/2000/svg" viewBox="0 0 32 40" x="0px" y="0px"><defs><style>.cls-1{fill:none;}</style></defs><g data-name="Click Through Rate"><circle class="cls-1" cx="26" cy="27.98" r="1"/><path d="M20.17,23.75A3.05,3.05,0,0,1,19,24a3,3,0,1,1,3-3,3.39,3.39,0,0,1-.07.64l1.81-2.18a1,1,0,0,0,.23-.68A3.88,3.88,0,0,0,21.75,15L16.68,13.3a1,1,0,0,1-.68-1V9a3,3,0,0,0-6,0v7.46l-1-.34a3,3,0,0,0-3.33,4.7l3.95,5A3,3,0,0,0,12,27h5a1,1,0,0,0,.77-.36Z"/><circle cx="19" cy="20.98" r="1"/><path d="M27.63,18.21a1,1,0,0,0-1.4.14l-9,11a1,1,0,0,0,.14,1.41A1,1,0,0,0,18,31a1,1,0,0,0,.77-.36l9-11A1,1,0,0,0,27.63,18.21Z"/><path d="M26,25a3,3,0,1,0,3,3A3,3,0,0,0,26,25Zm0,4a1,1,0,1,1,1-1A1,1,0,0,1,26,29Z"/><path d="M13,3.55a1,1,0,0,0,1-1V2a1,1,0,0,0-2,0v.55A1,1,0,0,0,13,3.55Z"/><path d="M16.13,4.85a1,1,0,0,0,.71-.3l.39-.39a1,1,0,1,0-1.42-1.41l-.39.4a1,1,0,0,0,0,1.41A1,1,0,0,0,16.13,4.85Z"/><path d="M9.17,4.55a1,1,0,1,0,1.4-1.43l-.4-.39A1,1,0,0,0,8.78,4.17Z"/></g></svg>